<svg xmlns="http://www.w3.org/2000/svg" fill="none" viewBox="0 0 500 500">
  <defs>
  <style>
    @media (prefers-color-scheme: light) {
      .background { fill: none; }
      .foreground { fill: black; }
    }
    @media (prefers-color-scheme: dark) {
      .background { fill: none; }
      .foreground { fill: white; }
    }
  </style>
  </defs>
  <rect class="background" width="500" height="500"/>
  <path class="foreground" d="M417.99,293.38c-4.59-1.38-4.59-3.67,0-5.51,28.48-11.48,51.45-35.83,51.45-66.6,0-66.15-53.74-90.49-112.08-90.49h-142.86c-4.16,0-7.29,1.33-9.22,3.81-1.74,1.94-2.66,4.67-2.66,8.13v115.32c.12,1.07.2,2.15.2,3.25,0,13.32-8.73,23.43-23.89,23.43h-56.5c-7.35,0-11.48-4.13-11.48-11.48v-25.26c0-7.35,4.13-11.48,11.48-11.48h53.28c5.47,0,10.06,1.04,13.84,2.82v-90.19c-3.44,7.01-10.71,11.57-20.73,11.57h-46.39c-7.35,0-11.48-4.13-11.48-11.48v-20.21c0-7.35,4.13-11.48,11.48-11.48h46.39c11.42,0,19.29,5.92,21.96,14.66,2.77-8.29,10.11-13.48,20-13.48l75.51-.13c-2.62-62.43-55.09-85.58-111.95-85.58H31.48c-7.35,0-11.48,4.13-11.48,11.48v313.27c0,7.35,4.13,11.48,11.48,11.48h149.75c7.39,0,14.67-.34,21.79-1.07h0s0,0,0,0c2.71-.28,5.39-.62,8.04-1.01,48.28-6.9,86.64-32.42,86.64-94.71,0-6.99-.94-13.56-2.64-19.69-.01-.05-.03-.1-.04-.15-.69-1.58-1.06-3.45-1.06-5.61v-20.21c0-7.35,4.13-11.48,11.48-11.48h46.39c14.24,0,22.97,9.19,22.97,21.59s-8.73,21.59-22.97,21.59h-41.56c.71,4.39,1.07,8.94,1.07,13.56,0,34.72-10.71,62.03-31.82,81.16-17.94,16.25-42.98,26.19-74.41,29.54-.36.04-.73.06-1.09.06-.33,0-.67-.02-1.01-.06v72.81c0,7.35,4.13,11.48,11.48,11.48h149.75c61.09,0,115.75-22.97,115.75-97.38,0-40.42-31.24-67.07-62.01-76.25ZM361.95,382.49h-56.5c-7.35,0-11.48-4.13-11.48-11.48v-25.26c0-7.35,4.13-11.48,11.48-11.48h53.28c18.37,0,27.1,11.48,27.1,24.8s-8.73,23.43-23.89,23.43Z"/>
</svg>