<?xml version="1.0" encoding="UTF-8"?>
<svg id="Layer_1" data-name="Layer 1" xmlns="http://www.w3.org/2000/svg" viewBox="0 0 1414.37 380">
  <g>
    <path d="M15.14,237.43V28.55c0-4.9,2.76-7.66,7.66-7.66h95.25c38.9,0,74.73,16.23,74.73,60.34,0,20.52-15.31,36.75-34.3,44.41-3.06,1.23-3.06,2.76,0,3.68,20.52,6.12,41.35,23.89,41.35,50.84,0,49.62-36.45,64.93-77.18,64.93H22.8c-4.9,0-7.66-2.76-7.66-7.66h0ZM83.44,106.03h30.93c9.49,0,15.31-6.12,15.31-14.39s-5.82-14.39-15.31-14.39h-30.93c-4.9,0-7.66,2.76-7.66,7.66v13.48c0,4.9,2.76,7.66,7.66,7.66v-.02ZM83.44,188.73h37.67c10.11,0,15.93-6.74,15.93-15.62s-5.82-16.54-18.07-16.54h-35.53c-4.9,0-7.66,2.76-7.66,7.66v16.84c0,4.9,2.76,7.66,7.66,7.66h0Z"/>
    <path d="M359.09,26.71l86.98,209.49c2.14,5.51-.31,8.88-5.82,8.88h-54.52c-4.29,0-7.35-1.84-8.88-5.82l-8.27-20.21c-1.53-3.98-4.59-5.82-8.88-5.82h-69.52c-4.29,0-7.35,1.84-8.88,6.13l-7.96,19.91c-1.53,3.98-4.59,5.82-8.88,5.82h-54.82c-5.51,0-7.96-3.37-5.82-8.88L290.8,26.72c1.53-3.98,4.59-5.82,8.88-5.82h50.54c4.29,0,7.35,1.84,8.88,5.82h0ZM310.39,162.7h29.4c5.51,0,8.27-3.37,6.13-8.88l-15.93-40.73c-2.45-6.74-7.35-6.74-9.8,0l-15.93,40.73c-2.14,5.51.61,8.88,6.13,8.88h0Z"/>
    <path d="M456.11,215.37c-3.98-3.06-4.29-6.74-1.53-10.72l23.28-33.69c2.76-4.29,6.43-4.9,10.41-2.14,16.85,11.03,43.49,22.36,67.07,22.36,16.54,0,22.97-5.21,22.97-13.48,0-12.25-16.84-13.78-35.83-17.46-26.95-5.21-86.06-13.48-86.06-71.06,0-52.07,48.7-71.97,87.9-71.97,33.38,0,56.66,9.19,84.84,29.71,3.98,3.06,4.59,6.74,1.84,10.72l-23.89,34c-2.76,3.98-6.43,4.59-10.41,1.84-14.7-9.8-34-18.68-54.21-18.68-9.19,0-24.5,1.53-24.5,12.56,0,15.01,29.4,16.54,45.94,19.3,29.4,4.9,75.96,19.29,75.96,71.97,0,45.94-35.53,70.14-87.59,70.14-37.67,0-65.85-10.41-96.17-33.38l-.02-.02Z"/>
    <path d="M817.66,77.55h-41.96c-4.9,0-7.66,2.76-7.66,7.66v152.22c0,4.9-2.76,7.66-7.66,7.66h-45.94c-4.9,0-7.66-2.76-7.66-7.66V85.21c0-4.9-2.76-7.66-7.66-7.66h-42.57c-4.9,0-7.66-2.76-7.66-7.66V28.55c0-4.9,2.76-7.66,7.66-7.66h161.1c4.9,0,7.66,2.76,7.66,7.66v41.35c0,4.9-2.76,7.66-7.66,7.66h.01Z"/>
    <path d="M852.94,20.89h45.94c4.9,0,7.66,2.76,7.66,7.66v208.88c0,4.9-2.76,7.66-7.66,7.66h-45.94c-4.9,0-7.66-2.76-7.66-7.66V28.55c0-4.9,2.76-7.66,7.66-7.66Z"/>
    <path d="M1079.74,26.71l86.98,209.49c2.14,5.51-.31,8.88-5.82,8.88h-54.52c-4.29,0-7.35-1.84-8.88-5.82l-8.27-20.21c-1.53-3.98-4.59-5.82-8.88-5.82h-69.52c-4.29,0-7.35,1.84-8.88,6.13l-7.96,19.91c-1.53,3.98-4.59,5.82-8.88,5.82h-54.82c-5.51,0-7.96-3.37-5.82-8.88l86.98-209.49c1.53-3.98,4.59-5.82,8.88-5.82h50.54c4.29,0,7.35,1.84,8.88,5.82h-.01ZM1031.04,162.7h29.4c5.51,0,8.27-3.37,6.12-8.88l-15.93-40.73c-2.45-6.74-7.35-6.74-9.8,0l-15.93,40.73c-2.14,5.51.61,8.88,6.13,8.88h.01Z"/>
    <path d="M1402.61,28.55v208.88c0,4.9-2.76,7.66-7.66,7.66h-47.78c-3.98,0-6.74-1.53-9.19-4.59l-83.31-109.95c-4.29-5.82-9.49-3.67-9.49,3.37v103.52c0,4.9-2.76,7.66-7.66,7.66h-45.94c-4.9,0-7.66-2.76-7.66-7.66V28.55c0-4.9,2.76-7.66,7.66-7.66h48.39c3.98,0,6.74,1.53,9.19,4.59l82.69,109.34c4.29,5.82,9.49,3.98,9.49-3.06V28.55c0-4.9,2.76-7.66,7.66-7.66h45.94c4.9,0,7.66,2.76,7.66,7.66h.01Z"/>
  </g>
  <g>
    <path d="M161.94,293.79h27.49c13.93,0,23.49,5.48,23.49,18.01,0,9.01-5.2,13.09-9.29,14.11v.09c3.99.84,11.7,5.11,11.7,16.25,0,14.86-12.07,19.5-24.98,19.5h-28.41c-1.95,0-3.06-1.11-3.06-3.06v-61.84c0-1.95,1.11-3.06,3.06-3.06h0ZM192.02,315.15c0-1.67-.56-4.74-4.83-4.74h-7.52v9.56h7.61c3.81,0,4.74-2.97,4.74-4.83h0ZM194.53,339.76c0-3.34-2.51-5.48-5.57-5.48h-9.29v10.86h9.47c2.88,0,5.39-1.58,5.39-5.39h0Z"/>
    <path d="M428.3,333.54v-36.68c0-1.95,1.11-3.06,3.06-3.06h14.67c1.95,0,3.06,1.11,3.06,3.06v37.33c0,8.54,6.41,11.24,10.12,11.24s10.21-2.69,10.21-11.24v-37.33c0-1.95,1.11-3.06,3.06-3.06h14.49c1.95,0,3.06,1.11,3.06,3.06v36.68c0,17.83-12.07,29.25-30.83,29.25s-30.92-11.42-30.92-29.25h.02Z"/>
    <path d="M723.73,296.86v61.84c0,1.95-1.11,3.06-3.06,3.06h-14.58c-1.95,0-3.06-1.11-3.06-3.06v-61.84c0-1.95,1.11-3.06,3.06-3.06h14.58c1.95,0,3.06,1.11,3.06,3.06Z"/>
    <path d="M986.85,345.14c1.95,0,3.06,1.11,3.06,3.06v10.49c0,1.95-1.11,3.06-3.06,3.06h-47.08c-1.95,0-3.06-1.11-3.06-3.06v-61.84c0-1.95,1.11-3.06,3.06-3.06h14.76c1.95,0,3.06,1.11,3.06,3.06v48.28h29.26Z"/>
    <path d="M1258.88,296.86v10.49c0,1.95-1.11,3.06-3.06,3.06h-14.58v48.28c0,1.95-1.11,3.06-3.06,3.06h-14.58c-1.95,0-3.06-1.11-3.06-3.06v-48.28h-14.58c-1.95,0-3.06-1.11-3.06-3.06v-10.49c0-1.95,1.11-3.06,3.06-3.06h49.86c1.95,0,3.06,1.11,3.06,3.06Z"/>
  </g>
</svg>